<svg xmlns="http://www.w3.org/2000/svg" width="24.167" height="24.12" viewBox="0 0 24.167 24.12">
  <path id="star-svgrepo-com_2_" data-name="star-svgrepo-com (2)" d="M9.959,5.792C11.369,3.264,12.073,2,13.127,2s1.758,1.264,3.168,3.792l.365.654a4.082,4.082,0,0,0,.913,1.315,3.8,3.8,0,0,0,1.479.5l.708.16c2.737.619,4.105.929,4.431,1.976s-.607,2.138-2.473,4.32l-.483.564A4.1,4.1,0,0,0,20.32,16.6a4.275,4.275,0,0,0,0,1.624l.073.753c.282,2.911.423,4.367-.429,5.014s-2.134.057-4.7-1.123l-.663-.305a3.8,3.8,0,0,0-1.478-.5,3.8,3.8,0,0,0-1.478.5l-.663.305c-2.563,1.18-3.844,1.77-4.7,1.123s-.711-2.1-.429-5.014l.073-.753a4.271,4.271,0,0,0,0-1.624,4.1,4.1,0,0,0-.915-1.314l-.483-.564c-1.866-2.182-2.8-3.273-2.473-4.32S3.758,9.042,6.495,8.423l.708-.16a3.8,3.8,0,0,0,1.479-.5,4.082,4.082,0,0,0,.913-1.315Z" transform="translate(-1.043 -1)" fill="none" stroke="#000" stroke-width="2"/>
</svg>
