<?xml version="1.0" encoding="UTF-8" standalone="no"?>
<svg
   width="26.989586"
   zoomAndPan="magnify"
   viewBox="0 0 20.242189 21.312493"
   height="28.416658"
   preserveAspectRatio="xMidYMid"
   version="1.0"
   id="svg489"
   xmlns="http://www.w3.org/2000/svg"
   xmlns:svg="http://www.w3.org/2000/svg">
  <defs
     id="defs29">
    <clipPath
       id="b0e59159e8">
      <path
         d="m 50.046875,244.82422 h 7.117187 v 6.28125 h -7.117187 z m 0,0"
         clip-rule="nonzero"
         id="path17" />
    </clipPath>
    <clipPath
       id="4c2a0ff643">
      <path
         d="m 54.105469,237.80078 h 9.179687 v 13.30469 h -9.179687 z m 0,0"
         clip-rule="nonzero"
         id="path18" />
    </clipPath>
    <clipPath
       id="0ddb5e395b">
      <path
         d="m 63.125,245.79297 h 7.164062 v 6.4414 H 63.125 Z m 0,0"
         clip-rule="nonzero"
         id="path19" />
    </clipPath>
    <clipPath
       id="2ef1bb3870">
      <path
         d="m 57.003906,245.79297 h 9.179688 v 13.33594 h -9.179688 z m 0,0"
         clip-rule="nonzero"
         id="path20" />
    </clipPath>
  </defs>
  <g
     clip-path="url(#b0e59159e8)"
     id="g209"
     transform="translate(-50.04687,-237.8125)">
    <path
       fill="#1fac4b"
       d="m 53.140625,244.83984 h 3.933594 c 0,3.78907 -1.644531,6.06641 -2.925781,6.17578 -0.07813,0.004 -0.160157,0.004 -0.242188,0.004 h -0.765625 c -0.855469,0 -1.628906,-0.34375 -2.1875,-0.90625 -0.558594,-0.55859 -0.90625,-1.33203 -0.90625,-2.18359 0,-1.70703 1.386719,-3.08985 3.09375,-3.08985"
       fill-opacity="1"
       fill-rule="nonzero"
       id="path208" />
  </g>
  <g
     clip-path="url(#4c2a0ff643)"
     id="g210"
     transform="translate(-50.04687,-237.8125)">
    <path
       fill="#0f66ad"
       d="m 63.261719,240.90234 v 1.77344 c 0,1.38281 -0.550781,2.71094 -1.53125,3.69141 l -2.414063,2.41406 c -1.375,1.375 -3.226562,2.17187 -5.167968,2.23437 1.28125,-0.10937 2.925781,-2.38671 2.925781,-6.17578 v -3.9375 c 0,-1.70703 1.386719,-3.08984 3.09375,-3.08984 1.707031,0 3.09375,1.38281 3.09375,3.08984"
       fill-opacity="1"
       fill-rule="nonzero"
       id="path209" />
  </g>
  <g
     clip-path="url(#0ddb5e395b)"
     id="g211"
     transform="translate(-50.04687,-237.8125)">
    <path
       fill="#1fac4b"
       d="m 67.195312,252.09766 h -3.933593 c 0,-3.79297 1.644531,-6.07032 2.921875,-6.17969 0.08203,0 0.164062,-0.004 0.246094,-0.004 h 0.765624 c 0.855469,0 1.628907,0.34766 2.1875,0.90625 0.558594,0.5586 0.90625,1.33203 0.90625,2.1836 0,1.70703 -1.386718,3.09375 -3.09375,3.09375"
       fill-opacity="1"
       fill-rule="nonzero"
       id="path210" />
  </g>
  <g
     clip-path="url(#2ef1bb3870)"
     id="g212"
     transform="translate(-50.04687,-237.8125)">
    <path
       fill="#0f66ad"
       d="m 57.074219,256.03125 v -1.77344 c 0,-1.38281 0.550781,-2.71094 1.53125,-3.6914 l 2.414062,-2.41016 c 1.378907,-1.37891 3.226563,-2.17578 5.164063,-2.23828 -1.277344,0.10937 -2.921875,2.38672 -2.921875,6.17969 v 3.93359 c 0,1.70703 -1.386719,3.09375 -3.09375,3.09375 -1.707031,0 -3.09375,-1.38672 -3.09375,-3.09375"
       fill-opacity="1"
       fill-rule="nonzero"
       id="path211" />
  </g>
</svg>
