<svg xmlns="http://www.w3.org/2000/svg" width="29.588" height="28.787" viewBox="0 0 29.588 28.787">
  <g id="delivery-svgrepo-com_1_" data-name="delivery-svgrepo-com (1)" transform="translate(-2.25 -3)">
    <path id="Path_48960" data-name="Path 48960" d="M9.879,12.165l.823,2.978c.776,2.808,1.164,4.212,2.3,4.85s2.588.262,5.483-.49l3.071-.8c2.895-.752,4.342-1.128,5-2.235s.27-2.51-.505-5.317l-.823-2.978c-.776-2.808-1.164-4.212-2.3-4.85s-2.588-.262-5.483.49l-3.071.8c-2.895.752-4.342,1.128-5,2.234S9.1,9.357,9.879,12.165Z" transform="translate(4.069 0)" fill="#1fac4b"/>
    <path id="Path_48961" data-name="Path 48961" d="M2.294,5.576A1.2,1.2,0,0,1,3.77,4.741L6.5,5.5a4.33,4.33,0,0,1,3.032,3l3.44,12.452.253.874a4.736,4.736,0,0,1,2.434,2.027l.5-.153,14.186-3.687a1.2,1.2,0,1,1,.6,2.322L16.806,26.008l-.526.162a4.653,4.653,0,0,1-3.535,4.441,4.785,4.785,0,0,1-5.84-3.27,4.612,4.612,0,0,1,3.372-5.664q.189-.049.378-.083L7.215,9.139a1.931,1.931,0,0,0-1.361-1.33L3.129,7.053A1.2,1.2,0,0,1,2.294,5.576Z" transform="translate(0 1.017)" fill="#1fac4b"/>
  </g>
</svg>
