<svg xmlns="http://www.w3.org/2000/svg" width="23.064" height="23.064" viewBox="0 0 23.064 23.064">
  <g id="support-svgrepo-com_1_" data-name="support-svgrepo-com (1)" transform="translate(-2 -2)">
    <path id="Path_49291" data-name="Path 49291" d="M21.064,10.532h-2.34a2.34,2.34,0,0,0-2.34,2.34v2.34a2.34,2.34,0,0,0,2.34,2.34h0a2.34,2.34,0,0,0,2.34-2.34V10.532A10.532,10.532,0,0,0,0,10.532v4.681a2.34,2.34,0,0,0,2.34,2.34h0a2.34,2.34,0,0,0,2.34-2.34v-2.34a2.34,2.34,0,0,0-2.34-2.34H0" transform="translate(3 3)" fill="none" stroke="#000" stroke-linecap="round" stroke-linejoin="round" stroke-width="2"/>
    <path id="Path_49292" data-name="Path 49292" d="M22.192,14v4.681q0,3.511-2.34,3.511H14" transform="translate(1.873 1.873)" fill="none" stroke="#000" stroke-linecap="round" stroke-linejoin="round" stroke-width="2"/>
  </g>
</svg>
