<svg xmlns="http://www.w3.org/2000/svg" width="30.588" height="25.975" viewBox="0 0 30.588 25.975">
  <g id="_x3C_Pill_x3E_" transform="translate(348.531 -181.454)">
    <path id="XMLID_31_" d="M-319.323,184.737a7.686,7.686,0,0,0-7.1-3.241h0a7.653,7.653,0,0,0-3.582,1.34L-345.25,193.46a7.678,7.678,0,0,0-1.9,10.685,7.686,7.686,0,0,0,7.1,3.241,7.652,7.652,0,0,0,3.582-1.34l15.23-10.624A7.67,7.67,0,0,0-319.323,184.737Zm-24.672,12.342c-2.205,1.8-2.278,3.5-2.278,3.5a4.475,4.475,0,0,1,.378-3.436c.975-1.84,5.081-4.484,5.081-4.484l.889,1.133C-339.913,193.777-341.777,195.276-343.995,197.079Zm21.456-3.545-6.677,4.654a13.241,13.241,0,0,0-1.913-4.9,8.667,8.667,0,0,0-4.325-3.862l6.762-4.715a5.41,5.41,0,0,1,2.51-.938,5.407,5.407,0,0,1,4.983,2.266A5.387,5.387,0,0,1-322.539,193.533Z" transform="translate(0 0)" fill="#1fac4b"/>
  </g>
</svg>
