<svg xmlns="http://www.w3.org/2000/svg" width="30.588" height="30.588" viewBox="0 0 30.588 30.588">
  <g id="question-circle-Filled" transform="translate(-2 -2)">
    <path id="question-circle-Filled-2" data-name="question-circle-Filled" d="M17.294,2A15.294,15.294,0,1,0,32.588,17.294,15.294,15.294,0,0,0,17.294,2Zm0,24.47a1.529,1.529,0,1,1,1.529-1.529A1.529,1.529,0,0,1,17.294,26.47Zm3.12-7.158c-1.407.933-1.636,1.438-1.667,1.529a1.529,1.529,0,0,1-1.453,1.04,1.813,1.813,0,0,1-.489-.076,1.552,1.552,0,0,1-.964-1.942,7.012,7.012,0,0,1,2.875-3.1,2.86,2.86,0,0,0,1.591-3.089,3.1,3.1,0,0,0-2.447-2.447,3.059,3.059,0,0,0-3.625,3.013,1.529,1.529,0,1,1-3.059,0,6.121,6.121,0,0,1,12.143-1.1A5.974,5.974,0,0,1,20.414,19.313Z" fill="#1fac4b"/>
  </g>
</svg>
